# Blender 5.2.0 LTS
# www.blender.org
mtllib collumns.mtl
o цельная
v -1.000000 0.000000 1.000000
v -1.000000 0.300000 1.000000
v -1.000000 0.000000 -1.000000
v -1.000000 0.300000 -1.000000
v 1.000000 0.000000 1.000000
v 1.000000 0.300000 1.000000
v 1.000000 0.000000 -1.000000
v 1.000000 0.300000 -1.000000
v 0.000000 0.300000 -0.800000
v 0.000000 4.800000 -0.800000
v 0.565685 0.300000 -0.565685
v 0.565685 4.800000 -0.565685
v 0.800000 0.300000 0.000000
v 0.800000 4.800000 0.000000
v 0.565685 0.300000 0.565685
v 0.565685 4.800000 0.565685
v 0.000000 0.300000 0.800000
v 0.000000 4.800000 0.800000
v -0.565685 0.300000 0.565685
v -0.565685 4.800000 0.565685
v -0.800000 0.300000 0.000000
v -0.800000 4.800000 0.000000
v -0.565685 0.300000 -0.565685
v -0.565685 4.800000 -0.565685
v -1.000000 4.800000 1.000000
v -1.000000 5.100000 1.000000
v -1.000000 4.800000 -1.000000
v -1.000000 5.100000 -1.000000
v 1.000000 4.800000 1.000000
v 1.000000 5.100000 1.000000
v 1.000000 4.800000 -1.000000
v 1.000000 5.100000 -1.000000
vn -1.0000 -0.0000 -0.0000
vn -0.0000 -0.0000 -1.0000
vn 1.0000 -0.0000 -0.0000
vn -0.0000 -0.0000 1.0000
vn -0.0000 -1.0000 -0.0000
vn -0.0000 1.0000 -0.0000
vn 0.3827 -0.0000 -0.9239
vn 0.9239 -0.0000 -0.3827
vn 0.9239 -0.0000 0.3827
vn 0.3827 -0.0000 0.9239
vn -0.3827 -0.0000 0.9239
vn -0.9239 -0.0000 0.3827
vn -0.9239 -0.0000 -0.3827
vn -0.3827 -0.0000 -0.9239
vt 0.898438 0.941406
vt 0.855469 0.941406
vt 0.855469 0.656250
vt 0.898438 0.656250
vt 0.796875 0.296875
vt 0.796875 0.582031
vt 0.511719 0.582031
vt 0.511719 0.296875
vt 0.085938 0.648438
vt 0.085938 0.003906
vt 0.164062 0.003906
vt 0.164062 0.648438
vt 0.171875 0.648438
vt 0.171875 0.003906
vt 0.253906 0.003906
vt 0.253906 0.648438
vt 0.335938 0.003906
vt 0.335938 0.648438
vt 0.339844 0.648438
vt 0.339844 0.003906
vt 0.421875 0.003906
vt 0.421875 0.648438
vt 0.503906 0.003906
vt 0.503906 0.648438
vt 0.804688 0.648438
vt 0.804688 0.003906
vt 0.886719 0.003906
vt 0.886719 0.648438
vt 0.890625 0.648438
vt 0.890625 0.003906
vt 0.972656 0.003906
vt 0.972656 0.648438
vt 0.003906 0.648438
vt 0.003906 0.003906
vt 0.390625 0.941406
vt 0.347656 0.941406
vt 0.347656 0.656250
vt 0.390625 0.656250
vt 0.441406 0.941406
vt 0.398438 0.941406
vt 0.398438 0.656250
vt 0.441406 0.656250
s 0
usemtl Материал
f 1/1/1 2/2/1 4/3/1 3/4/1
f 3/1/2 4/2/2 8/3/2 7/4/2
f 7/1/3 8/2/3 6/3/3 5/4/3
f 5/1/4 6/2/4 2/3/4 1/4/4
f 3/5/5 7/6/5 5/7/5 1/8/5
f 8/5/6 4/6/6 2/7/6 6/8/6
f 9/9/7 10/10/7 12/11/7 11/12/7
f 11/13/8 12/14/8 14/15/8 13/16/8
f 13/16/9 14/15/9 16/17/9 15/18/9
f 15/19/10 16/20/10 18/21/10 17/22/10
f 17/22/11 18/21/11 20/23/11 19/24/11
f 19/25/12 20/26/12 22/27/12 21/28/12
f 21/29/13 22/30/13 24/31/13 23/32/13
f 23/33/14 24/34/14 10/10/14 9/9/14
f 25/35/1 26/36/1 28/37/1 27/38/1
f 27/35/2 28/36/2 32/37/2 31/38/2
f 31/39/3 32/40/3 30/41/3 29/42/3
f 29/39/4 30/40/4 26/41/4 25/42/4
f 27/5/5 31/6/5 29/7/5 25/8/5
f 32/5/6 28/6/6 26/7/6 30/8/6
