# Blender 5.2.0 LTS
# www.blender.org
mtllib collumns1_2.mtl
o половина
v -1.000000 0.000000 1.000000
v -1.000000 0.300000 1.000000
v -1.000000 0.000000 -1.000000
v -1.000000 0.300000 -1.000000
v 0.000000 0.000000 1.000000
v 0.000000 0.300000 1.000000
v 0.000000 0.000000 -1.000000
v 0.000000 0.300000 -1.000000
v 0.000000 0.300000 -0.800000
v 0.000000 4.800000 -0.800000
v 0.000000 0.300000 0.800000
v 0.000000 4.800000 0.800000
v -0.565685 0.300000 0.565685
v -0.565685 4.800000 0.565685
v -0.800000 0.300000 0.000000
v -0.800000 4.800000 0.000000
v -0.565685 0.300000 -0.565685
v -0.565685 4.800000 -0.565685
v -1.000000 4.800000 1.000000
v -1.000000 5.100000 1.000000
v -1.000000 4.800000 -1.000000
v -1.000000 5.100000 -1.000000
v 0.000000 4.800000 1.000000
v 0.000000 5.100000 1.000000
v 0.000000 4.800000 -1.000000
v 0.000000 5.100000 -1.000000
vn -1.0000 -0.0000 -0.0000
vn -0.0000 -0.0000 -1.0000
vn 1.0000 -0.0000 -0.0000
vn -0.0000 -0.0000 1.0000
vn -0.0000 -1.0000 -0.0000
vn -0.0000 1.0000 -0.0000
vn -0.3827 -0.0000 0.9239
vn -0.9239 -0.0000 0.3827
vn -0.9239 -0.0000 -0.3827
vn -0.3827 -0.0000 -0.9239
vt 0.898438 0.937500
vt 0.855469 0.937500
vt 0.855469 0.656250
vt 0.898438 0.656250
vt 0.390625 0.941406
vt 0.347656 0.941406
vt 0.347656 0.656250
vt 0.390625 0.656250
vt 0.796875 0.582031
vt 0.511719 0.582031
vt 0.511719 0.296875
vt 0.796875 0.296875
vt 0.796875 0.992188
vt 0.507812 0.992188
vt 0.507812 0.894531
vt 0.796875 0.894531
vt 0.171875 0.652344
vt 0.171875 0.003906
vt 0.253906 0.003906
vt 0.253906 0.652344
vt 0.003906 0.652344
vt 0.003906 0.003906
vt 0.085938 0.003906
vt 0.085938 0.652344
vt 0.164062 0.003906
vt 0.164062 0.652344
vt 0.335938 0.003906
vt 0.335938 0.652344
s 0
usemtl Материал.001
f 1/1/1 2/2/1 4/3/1 3/4/1
f 3/5/2 4/6/2 8/7/2 7/8/2
f 7/1/3 8/2/3 6/3/3 5/4/3
f 5/5/4 6/6/4 2/7/4 1/8/4
f 3/9/5 7/10/5 5/11/5 1/12/5
f 8/9/6 4/10/6 2/11/6 6/12/6
f 9/13/3 10/14/3 12/15/3 11/16/3
f 11/17/7 12/18/7 14/19/7 13/20/7
f 13/21/8 14/22/8 16/23/8 15/24/8
f 15/24/9 16/23/9 18/25/9 17/26/9
f 17/20/10 18/19/10 10/27/10 9/28/10
f 19/1/1 20/2/1 22/3/1 21/4/1
f 21/5/2 22/6/2 26/7/2 25/8/2
f 25/1/3 26/2/3 24/3/3 23/4/3
f 23/5/4 24/6/4 20/7/4 19/8/4
f 21/9/5 25/10/5 23/11/5 19/12/5
f 26/9/6 22/10/6 20/11/6 24/12/6
