# Blender 5.2.0 LTS
# www.blender.org
mtllib floor.mtl
o Цилиндр
v 0.000000 0.000000 -10.000000
v 8.660254 0.000000 -5.000000
v 8.660254 0.000000 5.000000
v 0.000000 0.000000 10.000000
v -8.660254 0.000000 5.000000
v -8.660254 0.000000 -5.000000
v 0.000000 0.000000 0.000000
v 0.000000 -0.200000 -10.000000
v 8.660254 -0.200000 -5.000000
v 8.660254 -0.200000 5.000000
v 0.000000 -0.200000 10.000000
v -8.660254 -0.200000 5.000000
v -8.660254 -0.200000 -5.000000
v 0.000000 -0.200000 0.000000
vn -0.0000 1.0000 -0.0000
vn -0.0000 -1.0000 -0.0000
vn -1.0000 -0.0000 -0.0000
vn 0.5000 -0.0000 0.8660
vn 0.5000 -0.0000 -0.8660
vn -0.5000 -0.0000 -0.8660
vn -0.5000 -0.0000 0.8660
vn 1.0000 -0.0000 -0.0000
vt 0.042154 0.130000
vt 0.250000 0.010000
vt 0.457846 0.130000
vt 0.457846 0.370000
vt 0.042154 0.370000
vt 0.250000 0.490000
s 0
f 5/1/1 4/2/1 7/1/1
f 3/3/1 2/4/1 7/3/1
f 6/5/1 5/1/1 7/5/1
f 4/2/1 3/3/1 7/2/1
f 2/4/1 1/6/1 7/4/1
f 1/6/1 6/5/1 7/6/1
f 12/1/2 14/1/2 11/2/2
f 10/3/2 14/3/2 9/4/2
f 13/5/2 14/5/2 12/1/2
f 11/2/2 14/2/2 10/3/2
f 9/4/2 14/4/2 8/6/2
f 8/6/2 14/6/2 13/5/2
f 6/5/3 13/5/3 12/1/3 5/1/3
f 4/2/4 11/2/4 10/3/4 3/3/4
f 2/4/5 9/4/5 8/6/5 1/6/5
f 1/6/6 8/6/6 13/5/6 6/5/6
f 5/1/7 12/1/7 11/2/7 4/2/7
f 3/3/8 10/3/8 9/4/8 2/4/8
