# Blender 5.2.0 LTS
# www.blender.org
mtllib floorpit.mtl
o Цилиндр.001
v 0.000000 0.000000 -10.000000
v 8.660254 0.000000 -5.000000
v 8.660254 0.000000 5.000000
v 0.000000 0.000000 10.000000
v -8.660254 0.000000 5.000000
v -8.660254 0.000000 -5.000000
v 0.001274 0.000000 -3.411301
v 2.955462 0.000000 -1.706266
v 2.955462 0.000000 1.706266
v 0.001274 0.000000 3.411301
v -2.952509 0.000000 1.706033
v -2.952509 0.000000 -1.706033
v 2.234964 0.000000 -2.578529
v 1.118115 0.000000 -3.223391
v 3.351037 0.000000 0.646431
v 3.351037 0.000000 -0.646431
v 1.118115 0.000000 3.223391
v 2.234964 0.000000 2.578529
v -2.231478 0.000000 2.578874
v -1.115106 0.000000 3.223363
v -3.348065 0.000000 -0.645831
v -3.348065 0.000000 0.645831
v -1.115106 0.000000 -3.223363
v -2.231478 0.000000 -2.578874
v 0.000000 -0.200000 -10.000000
v 8.660254 -0.200000 -5.000000
v 8.660254 -0.200000 5.000000
v 0.000000 -0.200000 10.000000
v -8.660254 -0.200000 5.000000
v -8.660254 -0.200000 -5.000000
v 0.001274 -0.200000 -3.411301
v 2.955462 -0.200000 -1.706266
v 2.955462 -0.200000 1.706266
v 0.001274 -0.200000 3.411301
v -2.952509 -0.200000 1.706033
v -2.952509 -0.200000 -1.706033
v 2.234964 -0.200000 -2.578529
v 1.118115 -0.200000 -3.223391
v 3.351037 -0.200000 0.646431
v 3.351037 -0.200000 -0.646431
v 1.118115 -0.200000 3.223391
v 2.234964 -0.200000 2.578529
v -2.231478 -0.200000 2.578874
v -1.115106 -0.200000 3.223363
v -3.348065 -0.200000 -0.645831
v -3.348065 -0.200000 0.645831
v -1.115106 -0.200000 -3.223363
v -2.231478 -0.200000 -2.578874
vn -0.0000 1.0000 -0.0000
vn -0.0000 -1.0000 -0.0000
vn -0.5000 -0.0000 -0.8660
vn -0.6341 -0.0000 0.7733
vn -0.5000 -0.0000 0.8660
vn -0.1659 -0.0000 0.9861
vn 0.6341 -0.0000 0.7733
vn -0.9369 -0.0000 -0.3497
vn -0.9369 -0.0000 0.3497
vn 0.3527 -0.0000 0.9358
vn -1.0000 -0.0000 -0.0000
vn -0.7710 -0.0000 -0.6368
vn 0.9867 -0.0000 -0.1628
vn -0.1659 -0.0000 -0.9861
vn 0.1660 -0.0000 -0.9861
vn 0.9867 -0.0000 0.1624
vn 0.9369 -0.0000 -0.3496
vn 0.3524 -0.0000 -0.9358
vn 0.7710 -0.0000 -0.6369
vn 0.7710 -0.0000 0.6369
vn 0.6339 -0.0000 -0.7734
vn 0.5000 -0.0000 -0.8660
vn -0.6339 -0.0000 -0.7734
vn 0.9369 -0.0000 0.3496
vn -0.3524 -0.0000 -0.9358
vn 1.0000 -0.0000 -0.0000
vn -0.9867 -0.0000 0.1624
vn 0.1660 -0.0000 0.9861
vn 0.5000 -0.0000 0.8660
vn -0.9867 -0.0000 -0.1628
vn -0.3527 -0.0000 0.9358
vn -0.7710 -0.0000 0.6368
vt 0.250000 0.010000
vt 0.250061 0.010027
vt 0.180799 0.049953
vt 0.111517 0.089953
vt 0.042208 0.129961
vt 0.042154 0.130000
vt 0.457846 0.370000
vt 0.457846 0.290094
vt 0.457846 0.209906
vt 0.457846 0.130000
vt 0.042154 0.209906
vt 0.042154 0.290094
vt 0.042208 0.370039
vt 0.042154 0.370000
vt 0.388645 0.090047
vt 0.319363 0.050047
vt 0.250000 0.490000
vt 0.250061 0.489973
vt 0.319363 0.449953
vt 0.388645 0.409953
vt 0.111517 0.410047
vt 0.180799 0.450047
vt 0.000000 0.000000
s 0
f 4/1/1 10/2/1 20/3/1 19/4/1 11/5/1 5/6/1
f 2/7/1 8/7/1 16/8/1 15/9/1 9/10/1 3/10/1
f 5/6/1 11/5/1 22/11/1 21/12/1 12/13/1 6/14/1
f 3/10/1 9/10/1 18/15/1 17/16/1 10/2/1 4/1/1
f 1/17/1 7/18/1 14/19/1 13/20/1 8/7/1 2/7/1
f 6/14/1 12/13/1 24/21/1 23/22/1 7/18/1 1/17/1
f 28/1/2 29/6/2 35/5/2 43/4/2 44/3/2 34/2/2
f 26/7/2 27/10/2 33/10/2 39/9/2 40/8/2 32/7/2
f 29/6/2 30/14/2 36/13/2 45/12/2 46/11/2 35/5/2
f 27/10/2 28/1/2 34/2/2 41/16/2 42/15/2 33/10/2
f 25/17/2 26/7/2 32/7/2 37/20/2 38/19/2 31/18/2
f 30/14/2 25/17/2 31/18/2 47/22/2 48/21/2 36/13/2
f 6/14/3 1/17/3 25/17/3 30/14/3
f 3/23/4 15/23/4 39/23/4 27/23/4
f 13/20/5 14/19/5 38/19/5 37/20/5
f 14/19/6 7/18/6 31/18/6 38/19/6
f 2/23/7 16/23/7 40/23/7 26/23/7
f 9/10/8 15/9/8 39/9/8 33/10/8
f 16/8/9 8/7/9 32/7/9 40/8/9
f 2/23/10 13/23/10 37/23/10 26/23/10
f 15/9/11 16/8/11 40/8/11 39/9/11
f 18/15/12 9/10/12 33/10/12 42/15/12
f 1/23/13 14/23/13 38/23/13 25/23/13
f 10/2/14 17/16/14 41/16/14 34/2/14
f 20/3/15 10/2/15 34/2/15 44/3/15
f 1/23/16 23/23/16 47/23/16 25/23/16
f 17/16/3 18/15/3 42/15/3 41/16/3
f 22/11/17 11/5/17 35/5/17 46/11/17
f 6/23/18 24/23/18 48/23/18 30/23/18
f 11/5/19 19/4/19 43/4/19 35/5/19
f 24/21/20 12/13/20 36/13/20 48/21/20
f 6/23/21 21/23/21 45/23/21 30/23/21
f 19/4/22 20/3/22 44/3/22 43/4/22
f 5/23/23 22/23/23 46/23/23 29/23/23
f 12/13/24 21/12/24 45/12/24 36/13/24
f 5/23/25 19/23/25 43/23/25 29/23/25
f 1/17/22 2/7/22 26/7/22 25/17/22
f 21/12/26 22/11/26 46/11/26 45/12/26
f 4/23/27 20/23/27 44/23/27 28/23/27
f 2/7/26 3/10/26 27/10/26 26/7/26
f 7/18/28 23/22/28 47/22/28 31/18/28
f 3/10/29 4/1/29 28/1/29 27/10/29
f 23/22/29 24/21/29 48/21/29 47/22/29
f 4/1/5 5/6/5 29/6/5 28/1/5
f 4/23/30 17/23/30 41/23/30 28/23/30
f 5/6/11 6/14/11 30/14/11 29/6/11
f 3/23/31 18/23/31 42/23/31 27/23/31
f 8/7/32 13/20/32 37/20/32 32/7/32
