# Blender 5.2.0 LTS
# www.blender.org
mtllib railings.mtl
o Цилиндр.002
v 3.500000 0.000000 -0.100000
v 3.500000 1.000000 -0.100000
v 3.586602 0.000000 -0.050000
v 3.586602 1.000000 -0.050000
v 3.586602 0.000000 0.050000
v 3.586602 1.000000 0.050000
v 3.500000 0.000000 0.100000
v 3.500000 1.000000 0.100000
v 3.413398 0.000000 0.050000
v 3.413398 1.000000 0.050000
v 3.413398 0.000000 -0.050000
v 3.413398 1.000000 -0.050000
v 3.359600 0.000000 0.986454
v 3.359600 1.000000 0.986454
v 3.426513 0.000000 1.060768
v 3.426513 1.000000 1.060768
v 3.395611 0.000000 1.155874
v 3.395611 1.000000 1.155874
v 3.297796 0.000000 1.176665
v 3.297796 1.000000 1.176665
v 3.230883 0.000000 1.102351
v 3.230883 1.000000 1.102351
v 3.261785 0.000000 1.007245
v 3.261785 1.000000 1.007245
v 2.890338 0.000000 1.976347
v 2.890338 1.000000 1.976347
v 2.931012 0.000000 2.067701
v 2.931012 1.000000 2.067701
v 2.872233 0.000000 2.148603
v 2.872233 1.000000 2.148603
v 2.772781 0.000000 2.138150
v 2.772781 1.000000 2.138150
v 2.732107 0.000000 2.046796
v 2.732107 1.000000 2.046796
v 2.790886 0.000000 1.965894
v 2.790886 1.000000 1.965894
v 2.138150 0.000000 2.772781
v 2.138150 1.000000 2.772781
v 2.148602 0.000000 2.872233
v 2.148602 1.000000 2.872233
v 2.067701 0.000000 2.931012
v 2.067701 1.000000 2.931012
v 1.976346 0.000000 2.890338
v 1.976346 1.000000 2.890338
v 1.965894 0.000000 2.790886
v 1.965894 1.000000 2.790886
v 2.046795 0.000000 2.732108
v 2.046795 1.000000 2.732108
v 1.176665 0.000000 3.297796
v 1.176665 1.000000 3.297796
v 1.155874 0.000000 3.395611
v 1.155874 1.000000 3.395611
v 1.060768 0.000000 3.426513
v 1.060768 1.000000 3.426513
v 0.986454 0.000000 3.359600
v 0.986454 1.000000 3.359600
v 1.007245 0.000000 3.261785
v 1.007245 1.000000 3.261785
v 1.102351 0.000000 3.230883
v 1.102351 1.000000 3.230883
v 0.100000 0.000000 3.500000
v 0.100000 1.000000 3.500000
v 0.050000 0.000000 3.586602
v 0.050000 1.000000 3.586602
v -0.050000 0.000000 3.586602
v -0.050000 1.000000 3.586602
v -0.100000 0.000000 3.500000
v -0.100000 1.000000 3.500000
v -0.050000 0.000000 3.413398
v -0.050000 1.000000 3.413398
v 0.050000 0.000000 3.413398
v 0.050000 1.000000 3.413398
v -0.986454 0.000000 3.359599
v -0.986454 1.000000 3.359599
v -1.060769 0.000000 3.426512
v -1.060769 1.000000 3.426512
v -1.155874 0.000000 3.395611
v -1.155874 1.000000 3.395611
v -1.176666 0.000000 3.297796
v -1.176666 1.000000 3.297796
v -1.102351 0.000000 3.230883
v -1.102351 1.000000 3.230883
v -1.007246 0.000000 3.261785
v -1.007246 1.000000 3.261785
v -1.976346 0.000000 2.890338
v -1.976346 1.000000 2.890338
v -2.067701 0.000000 2.931011
v -2.067701 1.000000 2.931011
v -2.148602 0.000000 2.872233
v -2.148602 1.000000 2.872233
v -2.138150 0.000000 2.772781
v -2.138150 1.000000 2.772781
v -2.046795 0.000000 2.732107
v -2.046795 1.000000 2.732107
v -1.965894 0.000000 2.790886
v -1.965894 1.000000 2.790886
v -2.772781 0.000000 2.138150
v -2.772781 1.000000 2.138150
v -2.872233 0.000000 2.148602
v -2.872233 1.000000 2.148602
v -2.931012 0.000000 2.067701
v -2.931012 1.000000 2.067701
v -2.890338 0.000000 1.976346
v -2.890338 1.000000 1.976346
v -2.790886 0.000000 1.965894
v -2.790886 1.000000 1.965894
v -2.732108 0.000000 2.046795
v -2.732108 1.000000 2.046795
v -3.297796 0.000000 1.176665
v -3.297796 1.000000 1.176665
v -3.395611 0.000000 1.155874
v -3.395611 1.000000 1.155874
v -3.426512 0.000000 1.060768
v -3.426512 1.000000 1.060768
v -3.359599 0.000000 0.986454
v -3.359599 1.000000 0.986454
v -3.261785 0.000000 1.007245
v -3.261785 1.000000 1.007245
v -3.230883 0.000000 1.102351
v -3.230883 1.000000 1.102351
v -3.500000 0.000000 0.100000
v -3.500000 1.000000 0.100000
v -3.586602 0.000000 0.050000
v -3.586602 1.000000 0.050000
v -3.586602 0.000000 -0.050000
v -3.586602 1.000000 -0.050000
v -3.500000 0.000000 -0.100000
v -3.500000 1.000000 -0.100000
v -3.413398 0.000000 -0.050000
v -3.413398 1.000000 -0.050000
v -3.413398 0.000000 0.050000
v -3.413398 1.000000 0.050000
v -3.359599 0.000000 -0.986455
v -3.359599 1.000000 -0.986455
v -3.426512 0.000000 -1.060769
v -3.426512 1.000000 -1.060769
v -3.395610 0.000000 -1.155875
v -3.395610 1.000000 -1.155875
v -3.297796 0.000000 -1.176666
v -3.297796 1.000000 -1.176666
v -3.230883 0.000000 -1.102351
v -3.230883 1.000000 -1.102351
v -3.261785 0.000000 -1.007246
v -3.261785 1.000000 -1.007246
v -2.890337 0.000000 -1.976348
v -2.890337 1.000000 -1.976348
v -2.931011 0.000000 -2.067702
v -2.931011 1.000000 -2.067702
v -2.872232 0.000000 -2.148604
v -2.872232 1.000000 -2.148604
v -2.772780 0.000000 -2.138151
v -2.772780 1.000000 -2.138151
v -2.732106 0.000000 -2.046797
v -2.732106 1.000000 -2.046797
v -2.790885 0.000000 -1.965895
v -2.790885 1.000000 -1.965895
v -2.138151 0.000000 -2.772780
v -2.138151 1.000000 -2.772780
v -2.148603 0.000000 -2.872232
v -2.148603 1.000000 -2.872232
v -2.067702 0.000000 -2.931011
v -2.067702 1.000000 -2.931011
v -1.976347 0.000000 -2.890337
v -1.976347 1.000000 -2.890337
v -1.965894 0.000000 -2.790885
v -1.965894 1.000000 -2.790885
v -2.046796 0.000000 -2.732107
v -2.046796 1.000000 -2.732107
v -1.176665 0.000000 -3.297796
v -1.176665 1.000000 -3.297796
v -1.155874 0.000000 -3.395611
v -1.155874 1.000000 -3.395611
v -1.060769 0.000000 -3.426512
v -1.060769 1.000000 -3.426512
v -0.986454 0.000000 -3.359599
v -0.986454 1.000000 -3.359599
v -1.007245 0.000000 -3.261785
v -1.007245 1.000000 -3.261785
v -1.102351 0.000000 -3.230883
v -1.102351 1.000000 -3.230883
v -0.100000 0.000000 -3.500000
v -0.100000 1.000000 -3.500000
v -0.050000 0.000000 -3.586602
v -0.050000 1.000000 -3.586602
v 0.050000 0.000000 -3.586602
v 0.050000 1.000000 -3.586602
v 0.100000 0.000000 -3.500000
v 0.100000 1.000000 -3.500000
v 0.050000 0.000000 -3.413398
v 0.050000 1.000000 -3.413398
v -0.050000 0.000000 -3.413398
v -0.050000 1.000000 -3.413398
v 0.986454 0.000000 -3.359599
v 0.986454 1.000000 -3.359599
v 1.060769 0.000000 -3.426512
v 1.060769 1.000000 -3.426512
v 1.155874 0.000000 -3.395611
v 1.155874 1.000000 -3.395611
v 1.176666 0.000000 -3.297796
v 1.176666 1.000000 -3.297796
v 1.102351 0.000000 -3.230883
v 1.102351 1.000000 -3.230883
v 1.007245 0.000000 -3.261785
v 1.007245 1.000000 -3.261785
v 1.976347 0.000000 -2.890337
v 1.976347 1.000000 -2.890337
v 2.067702 0.000000 -2.931011
v 2.067702 1.000000 -2.931011
v 2.148604 0.000000 -2.872232
v 2.148604 1.000000 -2.872232
v 2.138151 0.000000 -2.772780
v 2.138151 1.000000 -2.772780
v 2.046796 0.000000 -2.732107
v 2.046796 1.000000 -2.732107
v 1.965895 0.000000 -2.790885
v 1.965895 1.000000 -2.790885
v 2.772781 0.000000 -2.138150
v 2.772781 1.000000 -2.138150
v 2.872233 0.000000 -2.148603
v 2.872233 1.000000 -2.148603
v 2.931011 0.000000 -2.067701
v 2.931011 1.000000 -2.067701
v 2.890338 0.000000 -1.976347
v 2.890338 1.000000 -1.976347
v 2.790886 0.000000 -1.965894
v 2.790886 1.000000 -1.965894
v 2.732107 0.000000 -2.046796
v 2.732107 1.000000 -2.046796
v 3.297796 0.000000 -1.176665
v 3.297796 1.000000 -1.176665
v 3.395611 0.000000 -1.155874
v 3.395611 1.000000 -1.155874
v 3.426513 0.000000 -1.060768
v 3.426513 1.000000 -1.060768
v 3.359600 0.000000 -0.986454
v 3.359600 1.000000 -0.986454
v 3.261785 0.000000 -1.007245
v 3.261785 1.000000 -1.007245
v 3.230883 0.000000 -1.102350
v 3.230883 1.000000 -1.102350
v 3.650000 1.100000 0.000000
v 3.575000 1.229904 0.000000
v 3.425000 1.229904 0.000000
v 3.350000 1.100000 0.000000
v 3.425000 0.970096 0.000000
v 3.575000 0.970096 0.000000
v 3.471356 1.100000 -1.127912
v 3.400027 1.229904 -1.104735
v 3.257369 1.229904 -1.058383
v 3.186039 1.100000 -1.035207
v 3.257369 0.970096 -1.058383
v 3.400027 0.970096 -1.104735
v 2.952912 1.100000 -2.145416
v 2.892236 1.229904 -2.101332
v 2.770883 1.229904 -2.013165
v 2.710207 1.100000 -1.969081
v 2.770883 0.970096 -2.013165
v 2.892236 0.970096 -2.101332
v 2.145416 1.100000 -2.952912
v 2.101332 1.229904 -2.892236
v 2.013164 1.229904 -2.770883
v 1.969080 1.100000 -2.710207
v 2.013164 0.970096 -2.770883
v 2.101332 0.970096 -2.892236
v 1.127913 1.100000 -3.471356
v 1.104736 1.229904 -3.400027
v 1.058384 1.229904 -3.257368
v 1.035208 1.100000 -3.186039
v 1.058384 0.970096 -3.257368
v 1.104736 0.970096 -3.400027
v 0.000000 1.100000 -3.650000
v 0.000000 1.229904 -3.575000
v 0.000000 1.229904 -3.425000
v 0.000000 1.100000 -3.350000
v 0.000000 0.970096 -3.425000
v 0.000000 0.970096 -3.575000
v -1.127912 1.100000 -3.471356
v -1.104736 1.229904 -3.400027
v -1.058383 1.229904 -3.257368
v -1.035207 1.100000 -3.186039
v -1.058383 0.970096 -3.257368
v -1.104736 0.970096 -3.400027
v -2.145417 1.100000 -2.952912
v -2.101333 1.229904 -2.892235
v -2.013165 1.229904 -2.770883
v -1.969081 1.100000 -2.710207
v -2.013165 0.970096 -2.770883
v -2.101333 0.970096 -2.892235
v -2.952913 1.100000 -2.145415
v -2.892236 1.229904 -2.101331
v -2.770884 1.229904 -2.013164
v -2.710207 1.100000 -1.969080
v -2.770884 0.970096 -2.013164
v -2.892236 0.970096 -2.101331
v -3.471356 1.100000 -1.127912
v -3.400027 1.229904 -1.104736
v -3.257368 1.229904 -1.058383
v -3.186039 1.100000 -1.035207
v -3.257368 0.970096 -1.058383
v -3.400027 0.970096 -1.104736
v -3.650000 1.100000 -0.000000
v -3.575000 1.229904 -0.000000
v -3.425000 1.229904 -0.000000
v -3.350000 1.100000 -0.000000
v -3.425000 0.970096 -0.000000
v -3.575000 0.970096 -0.000000
v -3.471357 1.100000 1.127911
v -3.400028 1.229904 1.104734
v -3.257369 1.229904 1.058382
v -3.186040 1.100000 1.035205
v -3.257369 0.970096 1.058382
v -3.400028 0.970096 1.104734
v -2.952913 1.100000 2.145415
v -2.892236 1.229904 2.101331
v -2.770884 1.229904 2.013164
v -2.710207 1.100000 1.969080
v -2.770884 0.970096 2.013164
v -2.892236 0.970096 2.101331
v -2.145417 1.100000 2.952912
v -2.101333 1.229904 2.892235
v -2.013165 1.229904 2.770883
v -1.969081 1.100000 2.710207
v -2.013165 0.970096 2.770883
v -2.101333 0.970096 2.892235
v -1.127912 1.100000 3.471356
v -1.104736 1.229904 3.400027
v -1.058383 1.229904 3.257368
v -1.035207 1.100000 3.186039
v -1.058383 0.970096 3.257368
v -1.104736 0.970096 3.400027
v 0.000000 1.100000 3.650000
v 0.000000 1.229904 3.575000
v 0.000000 1.229904 3.425000
v 0.000000 1.100000 3.350000
v 0.000000 0.970096 3.425000
v 0.000000 0.970096 3.575000
v 1.127913 1.100000 3.471356
v 1.104736 1.229904 3.400027
v 1.058384 1.229904 3.257368
v 1.035208 1.100000 3.186039
v 1.058384 0.970096 3.257368
v 1.104736 0.970096 3.400027
v 2.145414 1.100000 2.952914
v 2.101331 1.229904 2.892237
v 2.013163 1.229904 2.770885
v 1.969079 1.100000 2.710208
v 2.013163 0.970096 2.770885
v 2.101331 0.970096 2.892237
v 2.952911 1.100000 2.145418
v 2.892235 1.229904 2.101334
v 2.770882 1.229904 2.013166
v 2.710206 1.100000 1.969082
v 2.770882 0.970096 2.013166
v 2.892235 0.970096 2.101334
v 3.471356 1.100000 1.127913
v 3.400027 1.229904 1.104737
v 3.257368 1.229904 1.058384
v 3.186039 1.100000 1.035208
v 3.257368 0.970096 1.058384
v 3.400027 0.970096 1.104737
vn 0.5000 -0.0000 -0.8660
vn 1.0000 -0.0000 -0.0000
vn 0.5000 -0.0000 0.8660
vn -0.5000 -0.0000 0.8660
vn -0.0000 1.0000 -0.0000
vn -1.0000 -0.0000 -0.0000
vn -0.5000 -0.0000 -0.8660
vn -0.0000 -1.0000 -0.0000
vn 0.7431 -0.0000 -0.6691
vn 0.9511 -0.0000 0.3090
vn 0.2079 -0.0000 0.9781
vn -0.7431 -0.0000 0.6691
vn -0.9511 -0.0000 -0.3090
vn -0.2079 -0.0000 -0.9781
vn 0.9135 -0.0000 -0.4067
vn 0.8090 -0.0000 0.5878
vn -0.1045 -0.0000 0.9945
vn -0.9135 -0.0000 0.4067
vn -0.8090 -0.0000 -0.5878
vn 0.1045 -0.0000 -0.9945
vn 0.9945 -0.0000 -0.1045
vn 0.5878 -0.0000 0.8090
vn -0.4067 -0.0000 0.9135
vn -0.9945 -0.0000 0.1045
vn -0.5878 -0.0000 -0.8090
vn 0.4067 -0.0000 -0.9135
vn 0.9781 -0.0000 0.2079
vn 0.3090 -0.0000 0.9511
vn -0.6691 -0.0000 0.7431
vn -0.9781 -0.0000 -0.2079
vn -0.3090 -0.0000 -0.9511
vn 0.6691 -0.0000 -0.7431
vn 0.8660 -0.0000 0.5000
vn -0.0000 -0.0000 1.0000
vn -0.8660 -0.0000 0.5000
vn -0.8660 -0.0000 -0.5000
vn -0.0000 -0.0000 -1.0000
vn 0.8660 -0.0000 -0.5000
vn 0.6691 -0.0000 0.7431
vn -0.3090 -0.0000 0.9511
vn -0.9781 -0.0000 0.2079
vn -0.6691 -0.0000 -0.7431
vn 0.3090 -0.0000 -0.9511
vn 0.9781 -0.0000 -0.2079
vn 0.4067 -0.0000 0.9135
vn -0.5878 -0.0000 0.8090
vn -0.9945 -0.0000 -0.1045
vn -0.4067 -0.0000 -0.9135
vn 0.5878 -0.0000 -0.8090
vn 0.9945 -0.0000 0.1045
vn 0.1045 -0.0000 0.9945
vn -0.8090 -0.0000 0.5878
vn -0.9135 -0.0000 -0.4067
vn -0.1045 -0.0000 -0.9945
vn 0.8090 -0.0000 -0.5878
vn 0.9135 -0.0000 0.4067
vn -0.2079 -0.0000 0.9781
vn -0.9511 -0.0000 0.3090
vn -0.7431 -0.0000 -0.6691
vn 0.2079 -0.0000 -0.9781
vn 0.9511 -0.0000 -0.3090
vn 0.7431 -0.0000 0.6691
vn 0.8580 0.4954 -0.1359
vn -0.8580 0.4954 0.1359
vn -0.8580 -0.4954 0.1359
vn 0.8580 -0.4954 -0.1359
vn 0.7740 0.4954 -0.3944
vn -0.7740 0.4954 0.3944
vn -0.7740 -0.4954 0.3944
vn 0.7740 -0.4954 -0.3944
vn 0.6143 0.4954 -0.6143
vn -0.6143 0.4954 0.6143
vn -0.6143 -0.4954 0.6143
vn 0.6143 -0.4954 -0.6143
vn 0.3944 0.4954 -0.7740
vn -0.3944 0.4954 0.7740
vn -0.3944 -0.4954 0.7740
vn 0.3944 -0.4954 -0.7740
vn 0.1359 0.4954 -0.8580
vn -0.1359 0.4954 0.8580
vn -0.1359 -0.4954 0.8580
vn 0.1359 -0.4954 -0.8580
vn -0.1359 0.4954 -0.8580
vn 0.1359 0.4954 0.8580
vn 0.1359 -0.4954 0.8580
vn -0.1359 -0.4954 -0.8580
vn -0.3944 0.4954 -0.7740
vn 0.3944 0.4954 0.7740
vn 0.3944 -0.4954 0.7740
vn -0.3944 -0.4954 -0.7740
vn -0.6143 0.4954 -0.6143
vn 0.6143 0.4954 0.6143
vn 0.6143 -0.4954 0.6143
vn -0.6143 -0.4954 -0.6143
vn -0.7740 0.4954 -0.3944
vn 0.7740 0.4954 0.3944
vn 0.7740 -0.4954 0.3944
vn -0.7740 -0.4954 -0.3944
vn -0.8580 0.4954 -0.1359
vn 0.8580 0.4954 0.1359
vn 0.8580 -0.4954 0.1359
vn -0.8580 -0.4954 -0.1359
vt 1.000000 0.500000
vt 1.000000 1.000000
vt 0.833333 1.000000
vt 0.833333 0.500000
vt 0.666667 1.000000
vt 0.666667 0.500000
vt 0.500000 1.000000
vt 0.500000 0.500000
vt 0.333333 1.000000
vt 0.333333 0.500000
vt 0.457846 0.370000
vt 0.250000 0.490000
vt 0.042154 0.370000
vt 0.042154 0.130000
vt 0.250000 0.010000
vt 0.457846 0.130000
vt 0.166667 1.000000
vt 0.166667 0.500000
vt -0.000000 1.000000
vt -0.000000 0.500000
vt 0.750000 0.490000
vt 0.957846 0.370000
vt 0.957846 0.130000
vt 0.750000 0.010000
vt 0.542154 0.130000
vt 0.542154 0.370000
vt 0.550000 0.500000
vt 0.600000 0.500000
vt 0.600000 0.666667
vt 0.550000 0.666667
vt 0.600000 0.833333
vt 0.550000 0.833333
vt 0.600000 1.000000
vt 0.550000 1.000000
vt 0.550000 -0.000000
vt 0.600000 -0.000000
vt 0.600000 0.166667
vt 0.550000 0.166667
vt 0.600000 0.333333
vt 0.550000 0.333333
vt 0.650000 0.500000
vt 0.650000 0.666667
vt 0.650000 0.833333
vt 0.650000 1.000000
vt 0.650000 -0.000000
vt 0.650000 0.166667
vt 0.650000 0.333333
vt 0.700000 0.500000
vt 0.700000 0.666667
vt 0.700000 0.833333
vt 0.700000 1.000000
vt 0.700000 -0.000000
vt 0.700000 0.166667
vt 0.700000 0.333333
vt 0.750000 0.500000
vt 0.750000 0.666667
vt 0.750000 0.833333
vt 0.750000 1.000000
vt 0.750000 -0.000000
vt 0.750000 0.166667
vt 0.750000 0.333333
vt 0.800000 0.500000
vt 0.800000 0.666667
vt 0.800000 0.833333
vt 0.800000 1.000000
vt 0.800000 -0.000000
vt 0.800000 0.166667
vt 0.800000 0.333333
vt 0.850000 0.500000
vt 0.850000 0.666667
vt 0.850000 0.833333
vt 0.850000 1.000000
vt 0.850000 -0.000000
vt 0.850000 0.166667
vt 0.850000 0.333333
vt 0.900000 0.500000
vt 0.900000 0.666667
vt 0.900000 0.833333
vt 0.900000 1.000000
vt 0.900000 -0.000000
vt 0.900000 0.166667
vt 0.900000 0.333333
vt 0.950000 0.500000
vt 0.950000 0.666667
vt 0.950000 0.833333
vt 0.950000 1.000000
vt 0.950000 -0.000000
vt 0.950000 0.166667
vt 0.950000 0.333333
vt 1.000000 0.666667
vt 1.000000 0.833333
vt 1.000000 -0.000000
vt 1.000000 0.166667
vt 1.000000 0.333333
vt 0.000000 0.500000
vt 0.050000 0.500000
vt 0.050000 0.666667
vt 0.000000 0.666667
vt 0.050000 0.833333
vt 0.000000 0.833333
vt 0.050000 1.000000
vt 0.000000 1.000000
vt 0.000000 -0.000000
vt 0.050000 -0.000000
vt 0.050000 0.166667
vt 0.000000 0.166667
vt 0.050000 0.333333
vt 0.000000 0.333333
vt 0.100000 0.500000
vt 0.100000 0.666667
vt 0.100000 0.833333
vt 0.100000 1.000000
vt 0.100000 -0.000000
vt 0.100000 0.166667
vt 0.100000 0.333333
vt 0.150000 0.500000
vt 0.150000 0.666667
vt 0.150000 0.833333
vt 0.150000 1.000000
vt 0.150000 -0.000000
vt 0.150000 0.166667
vt 0.150000 0.333333
vt 0.200000 0.500000
vt 0.200000 0.666667
vt 0.200000 0.833333
vt 0.200000 1.000000
vt 0.200000 -0.000000
vt 0.200000 0.166667
vt 0.200000 0.333333
vt 0.250000 0.500000
vt 0.250000 0.666667
vt 0.250000 0.833333
vt 0.250000 1.000000
vt 0.250000 -0.000000
vt 0.250000 0.166667
vt 0.250000 0.333333
vt 0.300000 0.500000
vt 0.300000 0.666667
vt 0.300000 0.833333
vt 0.300000 1.000000
vt 0.300000 -0.000000
vt 0.300000 0.166667
vt 0.300000 0.333333
vt 0.350000 0.500000
vt 0.350000 0.666667
vt 0.350000 0.833333
vt 0.350000 1.000000
vt 0.350000 -0.000000
vt 0.350000 0.166667
vt 0.350000 0.333333
vt 0.400000 0.500000
vt 0.400000 0.666667
vt 0.400000 0.833333
vt 0.400000 1.000000
vt 0.400000 -0.000000
vt 0.400000 0.166667
vt 0.400000 0.333333
vt 0.450000 0.500000
vt 0.450000 0.666667
vt 0.450000 0.833333
vt 0.450000 1.000000
vt 0.450000 -0.000000
vt 0.450000 0.166667
vt 0.450000 0.333333
vt 0.500000 0.500000
vt 0.500000 0.666667
vt 0.500000 0.833333
vt 0.500000 1.000000
vt 0.500000 -0.000000
vt 0.500000 0.166667
vt 0.500000 0.333333
s 0
f 1/1/1 2/2/1 4/3/1 3/4/1
f 3/4/2 4/3/2 6/5/2 5/6/2
f 5/6/3 6/5/3 8/7/3 7/8/3
f 7/8/4 8/7/4 10/9/4 9/10/4
f 4/11/5 2/12/5 12/13/5 10/14/5 8/15/5 6/16/5
f 9/10/6 10/9/6 12/17/6 11/18/6
f 11/18/7 12/17/7 2/19/7 1/20/7
f 1/21/8 3/22/8 5/23/8 7/24/8 9/25/8 11/26/8
f 13/1/9 14/2/9 16/3/9 15/4/9
f 15/4/10 16/3/10 18/5/10 17/6/10
f 17/6/11 18/5/11 20/7/11 19/8/11
f 19/8/12 20/7/12 22/9/12 21/10/12
f 16/11/5 14/12/5 24/13/5 22/14/5 20/15/5 18/16/5
f 21/10/13 22/9/13 24/17/13 23/18/13
f 23/18/14 24/17/14 14/19/14 13/20/14
f 13/21/8 15/22/8 17/23/8 19/24/8 21/25/8 23/26/8
f 25/1/15 26/2/15 28/3/15 27/4/15
f 27/4/16 28/3/16 30/5/16 29/6/16
f 29/6/17 30/5/17 32/7/17 31/8/17
f 31/8/18 32/7/18 34/9/18 33/10/18
f 28/11/5 26/12/5 36/13/5 34/14/5 32/15/5 30/16/5
f 33/10/19 34/9/19 36/17/19 35/18/19
f 35/18/20 36/17/20 26/19/20 25/20/20
f 25/21/8 27/22/8 29/23/8 31/24/8 33/25/8 35/26/8
f 37/1/21 38/2/21 40/3/21 39/4/21
f 39/4/22 40/3/22 42/5/22 41/6/22
f 41/6/23 42/5/23 44/7/23 43/8/23
f 43/8/24 44/7/24 46/9/24 45/10/24
f 40/11/5 38/12/5 48/13/5 46/14/5 44/15/5 42/16/5
f 45/10/25 46/9/25 48/17/25 47/18/25
f 47/18/26 48/17/26 38/19/26 37/20/26
f 37/21/8 39/22/8 41/23/8 43/24/8 45/25/8 47/26/8
f 49/1/27 50/2/27 52/3/27 51/4/27
f 51/4/28 52/3/28 54/5/28 53/6/28
f 53/6/29 54/5/29 56/7/29 55/8/29
f 55/8/30 56/7/30 58/9/30 57/10/30
f 52/11/5 50/12/5 60/13/5 58/14/5 56/15/5 54/16/5
f 57/10/31 58/9/31 60/17/31 59/18/31
f 59/18/32 60/17/32 50/19/32 49/20/32
f 49/21/8 51/22/8 53/23/8 55/24/8 57/25/8 59/26/8
f 61/1/33 62/2/33 64/3/33 63/4/33
f 63/4/34 64/3/34 66/5/34 65/6/34
f 65/6/35 66/5/35 68/7/35 67/8/35
f 67/8/36 68/7/36 70/9/36 69/10/36
f 64/11/5 62/12/5 72/13/5 70/14/5 68/15/5 66/16/5
f 69/10/37 70/9/37 72/17/37 71/18/37
f 71/18/38 72/17/38 62/19/38 61/20/38
f 61/21/8 63/22/8 65/23/8 67/24/8 69/25/8 71/26/8
f 73/1/39 74/2/39 76/3/39 75/4/39
f 75/4/40 76/3/40 78/5/40 77/6/40
f 77/6/41 78/5/41 80/7/41 79/8/41
f 79/8/42 80/7/42 82/9/42 81/10/42
f 76/11/5 74/12/5 84/13/5 82/14/5 80/15/5 78/16/5
f 81/10/43 82/9/43 84/17/43 83/18/43
f 83/18/44 84/17/44 74/19/44 73/20/44
f 73/21/8 75/22/8 77/23/8 79/24/8 81/25/8 83/26/8
f 85/1/45 86/2/45 88/3/45 87/4/45
f 87/4/46 88/3/46 90/5/46 89/6/46
f 89/6/47 90/5/47 92/7/47 91/8/47
f 91/8/48 92/7/48 94/9/48 93/10/48
f 88/11/5 86/12/5 96/13/5 94/14/5 92/15/5 90/16/5
f 93/10/49 94/9/49 96/17/49 95/18/49
f 95/18/50 96/17/50 86/19/50 85/20/50
f 85/21/8 87/22/8 89/23/8 91/24/8 93/25/8 95/26/8
f 97/1/51 98/2/51 100/3/51 99/4/51
f 99/4/52 100/3/52 102/5/52 101/6/52
f 101/6/53 102/5/53 104/7/53 103/8/53
f 103/8/54 104/7/54 106/9/54 105/10/54
f 100/11/5 98/12/5 108/13/5 106/14/5 104/15/5 102/16/5
f 105/10/55 106/9/55 108/17/55 107/18/55
f 107/18/56 108/17/56 98/19/56 97/20/56
f 97/21/8 99/22/8 101/23/8 103/24/8 105/25/8 107/26/8
f 109/1/57 110/2/57 112/3/57 111/4/57
f 111/4/58 112/3/58 114/5/58 113/6/58
f 113/6/59 114/5/59 116/7/59 115/8/59
f 115/8/60 116/7/60 118/9/60 117/10/60
f 112/11/5 110/12/5 120/13/5 118/14/5 116/15/5 114/16/5
f 117/10/61 118/9/61 120/17/61 119/18/61
f 119/18/62 120/17/62 110/19/62 109/20/62
f 109/21/8 111/22/8 113/23/8 115/24/8 117/25/8 119/26/8
f 121/1/4 122/2/4 124/3/4 123/4/4
f 123/4/6 124/3/6 126/5/6 125/6/6
f 125/6/7 126/5/7 128/7/7 127/8/7
f 127/8/1 128/7/1 130/9/1 129/10/1
f 124/11/5 122/12/5 132/13/5 130/14/5 128/15/5 126/16/5
f 129/10/2 130/9/2 132/17/2 131/18/2
f 131/18/3 132/17/3 122/19/3 121/20/3
f 121/21/8 123/22/8 125/23/8 127/24/8 129/25/8 131/26/8
f 133/1/12 134/2/12 136/3/12 135/4/12
f 135/4/13 136/3/13 138/5/13 137/6/13
f 137/6/14 138/5/14 140/7/14 139/8/14
f 139/8/9 140/7/9 142/9/9 141/10/9
f 136/11/5 134/12/5 144/13/5 142/14/5 140/15/5 138/16/5
f 141/10/10 142/9/10 144/17/10 143/18/10
f 143/18/11 144/17/11 134/19/11 133/20/11
f 133/21/8 135/22/8 137/23/8 139/24/8 141/25/8 143/26/8
f 145/1/18 146/2/18 148/3/18 147/4/18
f 147/4/19 148/3/19 150/5/19 149/6/19
f 149/6/20 150/5/20 152/7/20 151/8/20
f 151/8/15 152/7/15 154/9/15 153/10/15
f 148/11/5 146/12/5 156/13/5 154/14/5 152/15/5 150/16/5
f 153/10/16 154/9/16 156/17/16 155/18/16
f 155/18/17 156/17/17 146/19/17 145/20/17
f 145/21/8 147/22/8 149/23/8 151/24/8 153/25/8 155/26/8
f 157/1/24 158/2/24 160/3/24 159/4/24
f 159/4/25 160/3/25 162/5/25 161/6/25
f 161/6/26 162/5/26 164/7/26 163/8/26
f 163/8/21 164/7/21 166/9/21 165/10/21
f 160/11/5 158/12/5 168/13/5 166/14/5 164/15/5 162/16/5
f 165/10/22 166/9/22 168/17/22 167/18/22
f 167/18/23 168/17/23 158/19/23 157/20/23
f 157/21/8 159/22/8 161/23/8 163/24/8 165/25/8 167/26/8
f 169/1/30 170/2/30 172/3/30 171/4/30
f 171/4/31 172/3/31 174/5/31 173/6/31
f 173/6/32 174/5/32 176/7/32 175/8/32
f 175/8/27 176/7/27 178/9/27 177/10/27
f 172/11/5 170/12/5 180/13/5 178/14/5 176/15/5 174/16/5
f 177/10/28 178/9/28 180/17/28 179/18/28
f 179/18/29 180/17/29 170/19/29 169/20/29
f 169/21/8 171/22/8 173/23/8 175/24/8 177/25/8 179/26/8
f 181/1/36 182/2/36 184/3/36 183/4/36
f 183/4/37 184/3/37 186/5/37 185/6/37
f 185/6/38 186/5/38 188/7/38 187/8/38
f 187/8/33 188/7/33 190/9/33 189/10/33
f 184/11/5 182/12/5 192/13/5 190/14/5 188/15/5 186/16/5
f 189/10/34 190/9/34 192/17/34 191/18/34
f 191/18/35 192/17/35 182/19/35 181/20/35
f 181/21/8 183/22/8 185/23/8 187/24/8 189/25/8 191/26/8
f 193/1/42 194/2/42 196/3/42 195/4/42
f 195/4/43 196/3/43 198/5/43 197/6/43
f 197/6/44 198/5/44 200/7/44 199/8/44
f 199/8/39 200/7/39 202/9/39 201/10/39
f 196/11/5 194/12/5 204/13/5 202/14/5 200/15/5 198/16/5
f 201/10/40 202/9/40 204/17/40 203/18/40
f 203/18/41 204/17/41 194/19/41 193/20/41
f 193/21/8 195/22/8 197/23/8 199/24/8 201/25/8 203/26/8
f 205/1/48 206/2/48 208/3/48 207/4/48
f 207/4/49 208/3/49 210/5/49 209/6/49
f 209/6/50 210/5/50 212/7/50 211/8/50
f 211/8/45 212/7/45 214/9/45 213/10/45
f 208/11/5 206/12/5 216/13/5 214/14/5 212/15/5 210/16/5
f 213/10/46 214/9/46 216/17/46 215/18/46
f 215/18/47 216/17/47 206/19/47 205/20/47
f 205/21/8 207/22/8 209/23/8 211/24/8 213/25/8 215/26/8
f 217/1/54 218/2/54 220/3/54 219/4/54
f 219/4/55 220/3/55 222/5/55 221/6/55
f 221/6/56 222/5/56 224/7/56 223/8/56
f 223/8/51 224/7/51 226/9/51 225/10/51
f 220/11/5 218/12/5 228/13/5 226/14/5 224/15/5 222/16/5
f 225/10/52 226/9/52 228/17/52 227/18/52
f 227/18/53 228/17/53 218/19/53 217/20/53
f 217/21/8 219/22/8 221/23/8 223/24/8 225/25/8 227/26/8
f 229/1/60 230/2/60 232/3/60 231/4/60
f 231/4/61 232/3/61 234/5/61 233/6/61
f 233/6/62 234/5/62 236/7/62 235/8/62
f 235/8/57 236/7/57 238/9/57 237/10/57
f 232/11/5 230/12/5 240/13/5 238/14/5 236/15/5 234/16/5
f 237/10/58 238/9/58 240/17/58 239/18/58
f 239/18/59 240/17/59 230/19/59 229/20/59
f 229/21/8 231/22/8 233/23/8 235/24/8 237/25/8 239/26/8
f 241/27/63 247/28/63 248/29/63 242/30/63
f 242/30/5 248/29/5 249/31/5 243/32/5
f 243/32/64 249/31/64 250/33/64 244/34/64
f 244/35/65 250/36/65 251/37/65 245/38/65
f 245/38/8 251/37/8 252/39/8 246/40/8
f 246/40/66 252/39/66 247/28/66 241/27/66
f 247/28/67 253/41/67 254/42/67 248/29/67
f 248/29/5 254/42/5 255/43/5 249/31/5
f 249/31/68 255/43/68 256/44/68 250/33/68
f 250/36/69 256/45/69 257/46/69 251/37/69
f 251/37/8 257/46/8 258/47/8 252/39/8
f 252/39/70 258/47/70 253/41/70 247/28/70
f 253/41/71 259/48/71 260/49/71 254/42/71
f 254/42/5 260/49/5 261/50/5 255/43/5
f 255/43/72 261/50/72 262/51/72 256/44/72
f 256/45/73 262/52/73 263/53/73 257/46/73
f 257/46/8 263/53/8 264/54/8 258/47/8
f 258/47/74 264/54/74 259/48/74 253/41/74
f 259/48/75 265/55/75 266/56/75 260/49/75
f 260/49/5 266/56/5 267/57/5 261/50/5
f 261/50/76 267/57/76 268/58/76 262/51/76
f 262/52/77 268/59/77 269/60/77 263/53/77
f 263/53/8 269/60/8 270/61/8 264/54/8
f 264/54/78 270/61/78 265/55/78 259/48/78
f 265/55/79 271/62/79 272/63/79 266/56/79
f 266/56/5 272/63/5 273/64/5 267/57/5
f 267/57/80 273/64/80 274/65/80 268/58/80
f 268/59/81 274/66/81 275/67/81 269/60/81
f 269/60/8 275/67/8 276/68/8 270/61/8
f 270/61/82 276/68/82 271/62/82 265/55/82
f 271/62/83 277/69/83 278/70/83 272/63/83
f 272/63/5 278/70/5 279/71/5 273/64/5
f 273/64/84 279/71/84 280/72/84 274/65/84
f 274/66/85 280/73/85 281/74/85 275/67/85
f 275/67/8 281/74/8 282/75/8 276/68/8
f 276/68/86 282/75/86 277/69/86 271/62/86
f 277/69/87 283/76/87 284/77/87 278/70/87
f 278/70/5 284/77/5 285/78/5 279/71/5
f 279/71/88 285/78/88 286/79/88 280/72/88
f 280/73/89 286/80/89 287/81/89 281/74/89
f 281/74/8 287/81/8 288/82/8 282/75/8
f 282/75/90 288/82/90 283/76/90 277/69/90
f 283/76/91 289/83/91 290/84/91 284/77/91
f 284/77/5 290/84/5 291/85/5 285/78/5
f 285/78/92 291/85/92 292/86/92 286/79/92
f 286/80/93 292/87/93 293/88/93 287/81/93
f 287/81/8 293/88/8 294/89/8 288/82/8
f 288/82/94 294/89/94 289/83/94 283/76/94
f 289/83/95 295/1/95 296/90/95 290/84/95
f 290/84/5 296/90/5 297/91/5 291/85/5
f 291/85/96 297/91/96 298/2/96 292/86/96
f 292/87/97 298/92/97 299/93/97 293/88/97
f 293/88/8 299/93/8 300/94/8 294/89/8
f 294/89/98 300/94/98 295/1/98 289/83/98
f 295/95/99 301/96/99 302/97/99 296/98/99
f 296/98/5 302/97/5 303/99/5 297/100/5
f 297/100/100 303/99/100 304/101/100 298/102/100
f 298/103/101 304/104/101 305/105/101 299/106/101
f 299/106/8 305/105/8 306/107/8 300/108/8
f 300/108/102 306/107/102 301/96/102 295/95/102
f 301/96/64 307/109/64 308/110/64 302/97/64
f 302/97/5 308/110/5 309/111/5 303/99/5
f 303/99/63 309/111/63 310/112/63 304/101/63
f 304/104/66 310/113/66 311/114/66 305/105/66
f 305/105/8 311/114/8 312/115/8 306/107/8
f 306/107/65 312/115/65 307/109/65 301/96/65
f 307/109/68 313/116/68 314/117/68 308/110/68
f 308/110/5 314/117/5 315/118/5 309/111/5
f 309/111/67 315/118/67 316/119/67 310/112/67
f 310/113/70 316/120/70 317/121/70 311/114/70
f 311/114/8 317/121/8 318/122/8 312/115/8
f 312/115/69 318/122/69 313/116/69 307/109/69
f 313/116/72 319/123/72 320/124/72 314/117/72
f 314/117/5 320/124/5 321/125/5 315/118/5
f 315/118/71 321/125/71 322/126/71 316/119/71
f 316/120/74 322/127/74 323/128/74 317/121/74
f 317/121/8 323/128/8 324/129/8 318/122/8
f 318/122/73 324/129/73 319/123/73 313/116/73
f 319/123/76 325/130/76 326/131/76 320/124/76
f 320/124/5 326/131/5 327/132/5 321/125/5
f 321/125/75 327/132/75 328/133/75 322/126/75
f 322/127/78 328/134/78 329/135/78 323/128/78
f 323/128/8 329/135/8 330/136/8 324/129/8
f 324/129/77 330/136/77 325/130/77 319/123/77
f 325/130/80 331/137/80 332/138/80 326/131/80
f 326/131/5 332/138/5 333/139/5 327/132/5
f 327/132/79 333/139/79 334/140/79 328/133/79
f 328/134/82 334/141/82 335/142/82 329/135/82
f 329/135/8 335/142/8 336/143/8 330/136/8
f 330/136/81 336/143/81 331/137/81 325/130/81
f 331/137/84 337/144/84 338/145/84 332/138/84
f 332/138/5 338/145/5 339/146/5 333/139/5
f 333/139/83 339/146/83 340/147/83 334/140/83
f 334/141/86 340/148/86 341/149/86 335/142/86
f 335/142/8 341/149/8 342/150/8 336/143/8
f 336/143/85 342/150/85 337/144/85 331/137/85
f 337/144/88 343/151/88 344/152/88 338/145/88
f 338/145/5 344/152/5 345/153/5 339/146/5
f 339/146/87 345/153/87 346/154/87 340/147/87
f 340/148/90 346/155/90 347/156/90 341/149/90
f 341/149/8 347/156/8 348/157/8 342/150/8
f 342/150/89 348/157/89 343/151/89 337/144/89
f 343/151/92 349/158/92 350/159/92 344/152/92
f 344/152/5 350/159/5 351/160/5 345/153/5
f 345/153/91 351/160/91 352/161/91 346/154/91
f 346/155/94 352/162/94 353/163/94 347/156/94
f 347/156/8 353/163/8 354/164/8 348/157/8
f 348/157/93 354/164/93 349/158/93 343/151/93
f 349/158/96 355/165/96 356/166/96 350/159/96
f 350/159/5 356/166/5 357/167/5 351/160/5
f 351/160/95 357/167/95 358/168/95 352/161/95
f 352/162/98 358/169/98 359/170/98 353/163/98
f 353/163/8 359/170/8 360/171/8 354/164/8
f 354/164/97 360/171/97 355/165/97 349/158/97
f 355/165/100 241/27/100 242/30/100 356/166/100
f 356/166/5 242/30/5 243/32/5 357/167/5
f 357/167/99 243/32/99 244/34/99 358/168/99
f 358/169/102 244/35/102 245/38/102 359/170/102
f 359/170/8 245/38/8 246/40/8 360/171/8
f 360/171/101 246/40/101 241/27/101 355/165/101
