# Blender 5.2.0 LTS
# www.blender.org
mtllib bookcase_tochno.mtl
o полки
v 0.445343 0.123410 -1.308922
v 0.445343 0.123410 1.308922
v 0.445343 0.276590 -1.308922
v 0.445343 0.276590 1.308922
v -0.445343 0.123410 -1.308922
v -0.445343 0.123410 1.308922
v -0.445343 0.276590 -1.308922
v -0.445343 0.276590 1.308922
v 0.445343 0.812721 -1.308922
v 0.445343 0.812720 1.308923
v 0.445343 0.965901 -1.308922
v 0.445343 0.965900 1.308923
v -0.445343 0.812721 -1.308922
v -0.445343 0.812720 1.308923
v -0.445343 0.965901 -1.308922
v -0.445343 0.965900 1.308923
v 0.445343 1.502032 -1.308922
v 0.445343 1.502031 1.308923
v 0.445343 1.655212 -1.308922
v 0.445343 1.655211 1.308923
v -0.445343 1.502032 -1.308922
v -0.445343 1.502031 1.308923
v -0.445343 1.655212 -1.308922
v -0.445343 1.655211 1.308923
v 0.445343 2.191342 -1.308922
v 0.445343 2.191342 1.308923
v 0.445343 2.344523 -1.308922
v 0.445343 2.344522 1.308923
v -0.445343 2.191342 -1.308922
v -0.445343 2.191342 1.308923
v -0.445343 2.344523 -1.308922
v -0.445343 2.344522 1.308923
v 0.445343 2.880654 -1.308922
v 0.445343 2.880653 1.308923
v 0.445343 3.033834 -1.308922
v 0.445343 3.033833 1.308923
v -0.445343 2.880654 -1.308922
v -0.445343 2.880653 1.308923
v -0.445343 3.033834 -1.308922
v -0.445343 3.033833 1.308923
v 0.364447 3.667045 1.220888
v 0.364447 0.002814 1.220887
v 0.364447 3.667045 1.374068
v 0.364447 0.002814 1.374067
v -0.468107 3.667045 1.220888
v -0.468107 0.002814 1.220887
v -0.468107 3.667045 1.374068
v -0.468107 0.002814 1.374067
v 0.364447 3.667045 -1.220888
v 0.364447 0.002814 -1.220887
v 0.364447 3.667045 -1.374068
v 0.364447 0.002814 -1.374067
v -0.468107 3.667045 -1.220888
v -0.468107 0.002814 -1.220887
v -0.468107 3.667045 -1.374068
v -0.468107 0.002814 -1.374067
v -0.425069 3.667044 1.306550
v -0.425067 0.174708 1.306550
v -0.481282 3.667044 1.306550
v -0.481280 0.174707 1.306550
v -0.425069 3.667044 -1.298694
v -0.425067 0.174708 -1.298694
v -0.481282 3.667044 -1.298694
v -0.481280 0.174707 -1.298694
v 0.456512 3.569964 -1.481203
v 0.456512 3.569963 1.481205
v 0.456512 3.723144 -1.481203
v 0.456512 3.723143 1.481205
v -0.493036 3.569964 -1.481203
v -0.493036 3.569963 1.481205
v -0.493036 3.723144 -1.481203
v -0.493036 3.723143 1.481205
vn 1.0000 -0.0000 -0.0000
vn -0.0000 1.0000 -0.0000
vn -1.0000 -0.0000 -0.0000
vn -0.0000 -1.0000 -0.0000
vn -0.0000 -0.0000 -1.0000
vn -0.0000 -0.0000 1.0000
vt 0.515625 0.546875
vt 0.515625 0.562500
vt 0.281250 0.562500
vt 0.281250 0.546875
vt 0.515625 0.640625
vt 0.281250 0.640625
vt 0.250000 0.500000
vt 0.250000 0.515625
vt 0.000000 0.515625
vt 0.000000 0.500000
vt 0.515625 0.453125
vt 0.281250 0.453125
vt 0.593750 0.546875
vt 0.593750 0.562500
vt 0.187500 0.562500
vt 0.187500 0.546875
vt 0.656250 0.734375
vt 0.656250 0.750000
vt 0.406250 0.750000
vt 0.406250 0.734375
vt 0.656250 0.828125
vt 0.406250 0.828125
vt 0.000000 0.531250
vt 0.250000 0.531250
vt 0.656250 0.656250
vt 0.406250 0.656250
vt 0.734375 0.734375
vt 0.734375 0.750000
vt 0.328125 0.750000
vt 0.328125 0.734375
vt 0.078125 0.734375
vt 0.078125 0.718750
vt 0.328125 0.718750
vt 0.078125 0.640625
vt 0.328125 0.640625
vt 0.000000 0.578125
vt 0.000000 0.562500
vt 0.250000 0.562500
vt 0.250000 0.578125
vt 0.078125 0.812500
vt 0.328125 0.812500
vt 0.000000 0.734375
vt 0.000000 0.718750
vt 0.406250 0.718750
vt 0.000000 0.593750
vt 0.250000 0.593750
vt 0.265625 0.562500
vt 0.265625 0.546875
vt 0.265625 0.640625
vt 0.250000 0.609375
vt 0.000000 0.609375
vt 0.265625 0.453125
vt 0.093750 0.421875
vt 0.078125 0.421875
vt 0.078125 0.078125
vt 0.093750 0.078125
vt 0.000000 0.421875
vt 0.000000 0.078125
vt 0.000000 -0.000000
vt 0.343750 -0.000000
vt 0.171875 0.421875
vt 0.171875 0.078125
vt 0.093750 0.500000
vt 0.078125 0.500000
vt 0.078125 0.000000
vt 0.093750 0.000000
vt 0.250000 0.421875
vt 0.250000 0.078125
vt 0.265625 0.078125
vt 0.265625 0.421875
vt 0.343750 0.078125
vt 0.343750 0.421875
vt 0.750000 0.000000
vt 0.750000 0.343750
vt 0.734375 0.343750
vt 0.734375 0.000000
vt 0.265625 0.500000
vt 0.265625 0.000000
vt 0.250000 0.000000
vt 0.734375 0.984375
vt 0.734375 0.656250
vt 1.000000 0.000000
vt 1.000000 0.328125
vt 0.750000 0.328125
vt 0.968750 0.984375
vt 0.953125 0.984375
vt 0.953125 0.656250
vt 0.968750 0.656250
vt 0.000000 0.640625
vt 0.000000 0.625000
vt 0.250000 0.625000
vt 0.250000 0.640625
vt 0.437500 0.093750
vt 0.453125 0.093750
vt 0.453125 0.359375
vt 0.437500 0.359375
vt 0.546875 0.093750
vt 0.546875 0.359375
vt 0.343750 0.093750
vt 0.359375 0.093750
vt 0.359375 0.359375
vt 0.343750 0.359375
vt 0.437500 0.000000
vt 0.453125 0.000000
vt 0.453125 0.453125
vt 0.437500 0.453125
s 0
usemtl Материал.002
f 1/1/1 3/2/1 4/3/1 2/4/1
f 3/2/2 7/5/2 8/6/2 4/3/2
f 7/7/3 5/8/3 6/9/3 8/10/3
f 5/11/4 1/1/4 2/4/4 6/12/4
f 3/2/5 1/1/5 5/13/5 7/14/5
f 8/15/6 6/16/6 2/4/6 4/3/6
f 9/17/1 11/18/1 12/19/1 10/20/1
f 11/18/2 15/21/2 16/22/2 12/19/2
f 15/23/3 13/9/3 14/8/3 16/24/3
f 13/25/4 9/17/4 10/20/4 14/26/4
f 11/18/5 9/17/5 13/27/5 15/28/5
f 16/29/6 14/30/6 10/20/6 12/19/6
f 17/31/1 19/32/1 20/33/1 18/30/1
f 19/32/2 23/34/2 24/35/2 20/33/2
f 23/36/3 21/37/3 22/38/3 24/39/3
f 21/40/4 17/31/4 18/30/4 22/41/4
f 19/32/5 17/31/5 21/42/5 23/43/5
f 24/44/6 22/20/6 18/30/6 20/33/6
f 25/19/1 27/20/1 28/17/1 26/18/1
f 27/20/2 31/26/2 32/25/2 28/17/2
f 31/45/3 29/36/3 30/39/3 32/46/3
f 29/22/4 25/19/4 26/18/4 30/21/4
f 27/20/5 25/19/5 29/29/5 31/30/5
f 32/27/6 30/28/6 26/18/6 28/17/6
f 33/1/1 35/2/1 36/47/1 34/48/1
f 35/2/2 39/5/2 40/49/2 36/47/2
f 39/46/3 37/50/3 38/51/3 40/45/3
f 37/11/4 33/1/4 34/48/4 38/52/4
f 35/2/5 33/1/5 37/13/5 39/14/5
f 40/15/6 38/16/6 34/48/6 36/47/6
f 41/53/1 43/54/1 44/55/1 42/56/1
f 43/54/6 47/57/6 48/58/6 44/55/6
f 47/59/3 45/59/3 46/60/3 48/60/3
f 45/61/5 41/53/5 42/56/5 46/62/5
f 43/54/2 41/53/2 45/63/2 47/64/2
f 48/65/4 46/66/4 42/56/4 44/55/4
f 49/67/1 50/68/1 52/69/1 51/70/1
f 51/70/5 52/69/5 56/71/5 55/72/5
f 55/73/3 56/74/3 54/75/3 53/76/3
f 53/61/6 54/62/6 50/68/6 49/67/6
f 51/70/2 55/77/2 53/7/2 49/67/2
f 56/78/4 52/69/4 50/68/4 54/79/4
f 57/80/6 59/80/6 60/81/6 58/81/6
f 59/73/3 63/82/3 64/83/3 60/84/3
f 63/85/5 61/86/5 62/87/5 64/88/5
f 61/86/1 57/80/1 58/81/1 62/87/1
f 59/80/2 57/80/2 61/86/2 63/86/2
f 64/89/4 62/90/4 58/91/4 60/92/4
f 65/93/1 67/94/1 68/95/1 66/96/1
f 67/94/2 71/97/2 72/98/2 68/95/2
f 71/99/3 69/100/3 70/101/3 72/102/3
f 69/100/4 65/93/4 66/96/4 70/101/4
f 67/94/5 65/93/5 69/103/5 71/104/5
f 72/105/6 70/106/6 66/96/6 68/95/6
