# Blender 5.2.0 LTS
# www.blender.org
mtllib navigator.mtl
o Куб
v -0.049149 0.308345 0.250043
v -0.050009 0.308346 0.153591
v -0.049149 -0.250043 -0.153590
v -0.049149 -0.153590 -0.250043
v -0.049149 0.308345 -0.250043
v -0.050009 0.308346 -0.153591
v 0.050009 -0.153591 0.153591
v 0.049149 0.404799 0.153590
v 0.049149 0.308345 0.250043
v 0.050009 0.308346 0.153591
v 0.049149 -0.250043 -0.153590
v 0.049149 -0.153590 -0.250043
v 0.050009 -0.153591 -0.153591
v 0.049149 0.404799 -0.153590
v 0.050009 0.308346 -0.153591
v 0.049149 0.308345 -0.250043
v -0.051232 -0.165852 0.165852
v -0.050009 -0.153591 0.153591
v -0.049149 -0.250043 0.153590
v -0.048878 -0.251170 0.163496
v -0.050594 -0.237421 0.165852
v -0.048878 -0.163496 0.251170
v -0.049149 -0.153590 0.250043
v -0.050594 -0.165852 0.237421
v -0.051232 0.320607 0.165852
v -0.048878 0.318251 0.251170
v -0.050594 0.320607 0.237421
v -0.048878 0.405925 0.163496
v -0.049149 0.404799 0.153590
v -0.050594 0.392176 0.165852
v -0.048878 -0.163496 -0.251170
v -0.050594 -0.165852 -0.237421
v -0.048878 -0.251170 -0.163496
v -0.050594 -0.237421 -0.165852
v -0.050009 -0.153591 -0.153591
v -0.051232 -0.165852 -0.165852
v -0.051232 0.320607 -0.165852
v -0.049149 0.404799 -0.153590
v -0.048878 0.405925 -0.163496
v -0.050594 0.392176 -0.165852
v -0.048878 0.318251 -0.251170
v -0.050594 0.320607 -0.237421
v 0.048878 -0.163496 0.251170
v 0.050594 -0.165852 0.237421
v 0.049149 -0.153590 0.250043
v 0.048878 -0.251170 0.163496
v 0.049149 -0.250043 0.153590
v 0.050594 -0.237421 0.165852
v 0.051232 -0.165852 0.165852
v 0.051232 0.320607 0.165852
v 0.048878 0.405925 0.163496
v 0.050594 0.392176 0.165852
v 0.048878 0.318251 0.251170
v 0.050594 0.320607 0.237421
v 0.051232 -0.165852 -0.165852
v 0.048878 -0.251170 -0.163496
v 0.050594 -0.237421 -0.165852
v 0.048878 -0.163496 -0.251170
v 0.050594 -0.165852 -0.237421
v 0.048878 0.318251 -0.251170
v 0.050594 0.320607 -0.237421
v 0.048878 0.405925 -0.163496
v 0.050594 0.392176 -0.165852
v 0.051232 0.320607 -0.165852
v 0.030556 -0.153591 0.153591
v 0.030556 0.308346 0.153591
v 0.030556 -0.153591 -0.153591
v 0.030556 0.308346 -0.153591
vn -1.0000 -0.0089 -0.0000
vn -1.0000 -0.0000 0.0089
vn -1.0000 0.0089 -0.0000
vn -1.0000 -0.0000 -0.0089
vn 1.0000 -0.0000 -0.0089
vn 1.0000 -0.0089 -0.0000
vn 1.0000 0.0089 -0.0000
vn 1.0000 -0.0000 0.0089
vn -0.0000 -1.0000 -0.0000
vn -1.0000 -0.0000 -0.0000
vn -0.0000 -0.0000 1.0000
vn -0.0000 1.0000 -0.0000
vn -0.0000 -0.0000 -1.0000
vn -0.9919 -0.1260 0.0128
vn -0.9919 -0.0128 0.1260
vn -0.9919 0.0128 0.1260
vn -0.9919 0.1260 0.0128
vn -0.9919 -0.0128 -0.1260
vn -0.9919 -0.1260 -0.0128
vn -0.9919 0.1260 -0.0128
vn -0.9919 0.0128 -0.1260
vn 0.9919 -0.0128 0.1260
vn 0.9919 -0.1260 0.0128
vn 0.9919 0.1260 0.0128
vn 0.9919 0.0128 0.1260
vn 0.9919 -0.1260 -0.0128
vn 0.9919 -0.0128 -0.1260
vn 0.9919 0.0128 -0.1260
vn 0.9919 0.1260 -0.0128
vn -0.9941 -0.0089 -0.1080
vn -0.9781 -0.1473 0.1473
vn -0.9941 0.1080 0.0089
vn -0.9941 -0.1080 0.0089
vn -0.9781 0.1473 0.1473
vn -0.9941 0.0089 -0.1080
vn -0.9781 -0.1473 -0.1473
vn -0.9941 -0.0089 0.1080
vn -0.9941 0.1080 -0.0089
vn -0.9941 0.0089 0.1080
vn -0.9781 0.1473 -0.1473
vn -0.9941 -0.1080 -0.0089
vn 0.9781 -0.1473 0.1473
vn 0.9941 -0.0089 -0.1080
vn 0.9941 0.1080 0.0089
vn 0.9941 0.0089 -0.1080
vn 0.9781 0.1473 0.1473
vn 0.9941 -0.1080 0.0089
vn 0.9941 -0.0089 0.1080
vn 0.9781 -0.1473 -0.1473
vn 0.9941 0.1080 -0.0089
vn 0.9781 0.1473 -0.1473
vn 0.9941 0.0089 0.1080
vn 0.9941 -0.1080 -0.0089
vn -0.0000 -0.9936 0.1130
vn -0.0000 0.1130 -0.9936
vn -0.0000 0.9936 0.1130
vn -0.0000 -0.1130 -0.9936
vn -0.0000 -0.9936 -0.1130
vn -0.0000 0.1130 0.9936
vn -0.0000 0.9936 -0.1130
vn -0.0000 -0.1130 0.9936
vn -0.9999 -0.0089 0.0089
vn -0.0000 -0.7071 0.7071
vn -0.9999 0.0089 0.0089
vn -0.0000 0.7071 0.7071
vn -0.0000 -0.7071 -0.7071
vn -0.9999 -0.0089 -0.0089
vn -0.9999 0.0089 -0.0089
vn -0.0000 0.7071 -0.7071
vn 0.9999 -0.0089 0.0089
vn 0.9999 0.0089 0.0089
vn 0.9999 -0.0089 -0.0089
vn 0.9999 0.0089 -0.0089
vn 1.0000 -0.0000 -0.0000
vt 0.343750 0.000000
vt 0.093750 0.000000
vt 0.093750 0.093750
vt 0.343750 0.093750
vt 0.000000 0.093750
vt 0.000000 0.468750
vt 0.093750 0.468750
vt 0.093750 0.562500
vt 0.343750 0.562500
vt 0.343750 0.468750
vt 0.437500 0.468750
vt 0.437500 0.093750
vt 0.281250 0.968750
vt 0.218750 0.968750
vt 0.218750 0.718750
vt 0.281250 0.718750
vt 0.562500 0.906250
vt 0.937500 0.906250
vt 0.937500 1.000000
vt 0.562500 1.000000
vt 0.406250 0.968750
vt 0.343750 0.968750
vt 0.343750 0.718750
vt 0.406250 0.718750
vt 0.562500 0.781250
vt 0.937500 0.781250
vt 0.937500 0.875000
vt 0.562500 0.875000
vt 0.968750 0.406250
vt 0.968750 0.031250
vt 1.000000 0.031250
vt 1.000000 0.406250
vt 0.093750 0.031250
vt 0.031250 0.093750
vt 0.031250 0.468750
vt 0.093750 0.531250
vt 0.406250 0.093750
vt 0.343750 0.031250
vt 0.343750 0.531250
vt 0.406250 0.468750
vt 0.500000 1.000000
vt 0.500000 0.906250
vt 1.000000 0.906250
vt 1.000000 1.000000
vt 0.500000 0.875000
vt 0.500000 0.781250
vt 1.000000 0.781250
vt 1.000000 0.875000
vt 0.000000 0.906250
vt 0.187500 0.906250
vt 0.187500 1.000000
vt 0.000000 1.000000
vt 0.968750 0.531250
vt 0.968750 0.281250
vt 0.937500 0.406250
vt 0.937500 0.031250
s 0
usemtl Материал
f 3/1/1 19/2/1 18/3/1 35/4/1
f 23/5/2 1/6/2 2/7/2 18/3/2
f 29/8/3 38/9/3 6/10/3 2/7/3
f 5/11/4 4/12/4 35/4/4 6/10/4
f 15/10/5 13/4/5 12/12/5 16/11/5
f 47/2/6 11/1/6 13/4/6 7/3/6
f 14/9/7 8/8/7 10/7/7 15/10/7
f 9/6/8 45/5/8 7/3/8 10/7/8
f 3/13/9 11/14/9 47/15/9 19/16/9
f 18/3/10 2/7/10 6/10/10 35/4/10
f 45/17/11 9/18/11 1/19/11 23/20/11
f 14/21/12 38/22/12 29/23/12 8/24/12
f 4/25/13 5/26/13 16/27/13 12/28/13
f 10/29/13 7/30/13 65/31/13 66/32/13
f 19/2/14 20/2/14 21/33/14
f 22/5/15 23/5/15 24/34/15
f 1/6/16 26/6/16 27/35/16
f 28/8/17 29/8/17 30/36/17
f 31/12/18 32/37/18 4/12/18
f 33/1/19 3/1/19 34/38/19
f 38/9/20 39/9/20 40/39/20
f 41/11/21 5/11/21 42/40/21
f 43/5/22 44/34/22 45/5/22
f 46/2/23 47/2/23 48/33/23
f 8/8/24 51/8/24 52/36/24
f 53/6/25 9/6/25 54/35/25
f 11/1/26 56/1/26 57/38/26
f 58/12/27 12/12/27 59/37/27
f 60/11/28 61/40/28 16/11/28
f 62/9/29 14/9/29 63/39/29
f 18/3/30 19/2/30 21/33/30 17/3/30
f 20/2/31 22/5/31 24/34/31 21/33/31
f 23/5/32 18/3/32 17/3/32 24/34/32
f 2/7/33 1/6/33 27/35/33 25/7/33
f 26/6/34 28/8/34 30/36/34 27/35/34
f 29/8/35 2/7/35 25/7/35 30/36/35
f 31/12/36 33/1/36 34/38/36 32/37/36
f 3/1/37 35/4/37 36/4/37 34/38/37
f 35/4/38 4/12/38 32/37/38 36/4/38
f 6/10/39 38/9/39 40/39/39 37/10/39
f 39/9/40 41/11/40 42/40/40 40/39/40
f 5/11/41 6/10/41 37/10/41 42/40/41
f 43/5/42 46/2/42 48/33/42 44/34/42
f 47/2/43 7/3/43 49/3/43 48/33/43
f 7/3/44 45/5/44 44/34/44 49/3/44
f 10/7/45 8/8/45 52/36/45 50/7/45
f 51/8/46 53/6/46 54/35/46 52/36/46
f 9/6/47 10/7/47 50/7/47 54/35/47
f 13/4/48 11/1/48 57/38/48 55/4/48
f 56/1/49 58/12/49 59/37/49 57/38/49
f 12/12/50 13/4/50 55/4/50 59/37/50
f 60/11/51 62/9/51 63/39/51 61/40/51
f 14/9/52 15/10/52 64/10/52 63/39/52
f 15/10/53 16/11/53 61/40/53 64/10/53
f 11/14/54 3/13/54 33/13/54 56/14/54
f 4/25/55 12/28/55 58/28/55 31/25/55
f 38/22/56 14/21/56 62/21/56 39/22/56
f 16/27/57 5/26/57 41/26/57 60/27/57
f 19/16/58 47/15/58 46/15/58 20/16/58
f 45/17/59 23/20/59 22/20/59 43/17/59
f 8/24/60 29/23/60 28/23/60 51/24/60
f 1/19/61 9/18/61 53/18/61 26/19/61
f 21/33/62 24/34/62 17/3/62
f 20/41/63 46/42/63 43/17/63 22/20/63
f 27/35/64 30/36/64 25/7/64
f 51/43/65 28/44/65 26/19/65 53/18/65
f 56/45/66 33/46/66 31/25/66 58/28/66
f 34/38/67 36/4/67 32/37/67
f 40/39/68 42/40/68 37/10/68
f 39/47/69 62/48/69 60/27/69 41/26/69
f 48/33/70 49/3/70 44/34/70
f 52/36/71 54/35/71 50/7/71
f 57/38/72 59/37/72 55/4/72
f 63/39/73 64/10/73 61/40/73
f 67/49/74 68/50/74 66/51/74 65/52/74
f 15/53/9 10/54/9 66/54/9 68/53/9
f 7/30/12 13/54/12 67/54/12 65/30/12
f 13/55/11 15/56/11 68/56/11 67/55/11
